<?xml version="1.0" encoding="UTF-8" standalone="no"?>
<!-- Created with Inkscape (http://www.inkscape.org/) -->

<svg
   width="44.619049mm"
   height="44.61927mm"
   viewBox="0 0 44.619049 44.619271"
   version="1.1"
   id="svg1"
   xml:space="preserve"
   inkscape:version="1.3.2 (091e20e, 2023-11-25)"
   sodipodi:docname="TrackAzity.svg"
   xmlns:inkscape="http://www.inkscape.org/namespaces/inkscape"
   xmlns:sodipodi="http://sodipodi.sourceforge.net/DTD/sodipodi-0.dtd"
   xmlns="http://www.w3.org/2000/svg"
   xmlns:svg="http://www.w3.org/2000/svg"><sodipodi:namedview
     id="namedview1"
     pagecolor="#505050"
     bordercolor="#eeeeee"
     borderopacity="1"
     inkscape:showpageshadow="0"
     inkscape:pageopacity="0"
     inkscape:pagecheckerboard="0"
     inkscape:deskcolor="#d1d1d1"
     inkscape:document-units="mm"
     inkscape:zoom="0.66869145"
     inkscape:cx="480.78976"
     inkscape:cy="310.30754"
     inkscape:window-width="1920"
     inkscape:window-height="1007"
     inkscape:window-x="0"
     inkscape:window-y="0"
     inkscape:window-maximized="1"
     inkscape:current-layer="layer1" /><defs
     id="defs1" /><g
     inkscape:label="Layer 1"
     inkscape:groupmode="layer"
     id="layer1"
     transform="translate(-701.21456,-201.7758)"><path
       id="rect4"
       style="fill:#4f80b0;fill-opacity:1;stroke-width:1.00462;stroke-linecap:square;paint-order:markers fill stroke"
       d="m 711.64286,201.7758 c -5.77727,0 -10.4283,4.65102 -10.4283,10.4283 v 23.76267 c 0,5.77727 4.65103,10.4283 10.4283,10.4283 h 23.76246 c 5.77727,0 10.42829,-4.65103 10.42829,-10.4283 V 212.2041 c 0,-5.77728 -4.65102,-10.4283 -10.42829,-10.4283 z m 25.88959,3.35099 10e-4,4.27683 10e-4,4.27683 -1.71095,1.77246 c -0.94101,0.97483 -2.45278,2.53272 -3.3595,3.46191 -6.11409,6.26552 -10.8081,11.10994 -13.04102,13.4589 l -0.3089,0.32486 2.2e-4,-4.04223 v -4.04222 l 0.67292,-0.75148 c 0.37008,-0.41331 1.16627,-1.25423 1.76927,-1.86869 l 1.09635,-1.11721 h -10.95753 -6.3784 v -5.23182 h 10.48258 11.58383 l 1.12445,-1.17064 c 0.61851,-0.64381 2.15657,-2.22562 3.41784,-3.51513 1.26128,-1.28952 2.70996,-2.78592 3.21922,-3.32545 0.50927,-0.53954 1.25483,-1.3243 1.65666,-1.74394 z m -4.06586,16.27599 h 5.34443 5.34444 l -5.2827,5.28632 -5.28249,5.28632 h -1.20342 -1.20343 l -3.82147,3.84212 c -2.10178,2.11315 -4.46213,4.50309 -5.24545,5.31079 l -1.4244,1.46847 -3.93408,0.003 c -2.1638,0.002 -3.93408,-0.0103 -3.93408,-0.0266 -10e-6,-0.0415 4.54254,-4.70484 13.18982,-13.54044 2.78681,-2.84751 5.60372,-5.72911 6.25983,-6.40352 z m -14.73067,0.9633 c 0.0139,-0.009 0.033,-0.004 0.0541,0.0168 0.0421,0.0421 -2.81496,2.98106 -6.34903,6.53105 -2.34581,2.35637 -4.73482,4.7686 -7.1235,7.17799 v -8.23155 c 0.067,-0.0674 0.13507,-0.1379 0.20096,-0.20416 l 5.06769,-5.09557 h 4.06351 c 3.02343,0 4.06373,-0.0327 4.06373,-0.12731 0,-0.035 0.009,-0.0581 0.0226,-0.0673 z" /></g></svg>
