<?xml version="1.0" encoding="UTF-8" standalone="no"?>
<!-- Created with Inkscape (http://www.inkscape.org/) -->

<svg
   width="108.3107mm"
   height="108.31122mm"
   viewBox="0 0 108.3107 108.31122"
   version="1.1"
   id="svg1"
   xml:space="preserve"
   inkscape:version="1.3.2 (091e20e, 2023-11-25)"
   sodipodi:docname="TrackAzity.svg"
   xmlns:inkscape="http://www.inkscape.org/namespaces/inkscape"
   xmlns:sodipodi="http://sodipodi.sourceforge.net/DTD/sodipodi-0.dtd"
   xmlns="http://www.w3.org/2000/svg"
   xmlns:svg="http://www.w3.org/2000/svg"><sodipodi:namedview
     id="namedview1"
     pagecolor="#505050"
     bordercolor="#eeeeee"
     borderopacity="1"
     inkscape:showpageshadow="0"
     inkscape:pageopacity="0"
     inkscape:pagecheckerboard="0"
     inkscape:deskcolor="#d1d1d1"
     inkscape:document-units="mm"
     inkscape:zoom="0.049975858"
     inkscape:cx="2191.0579"
     inkscape:cy="5032.4298"
     inkscape:window-width="1920"
     inkscape:window-height="1007"
     inkscape:window-x="0"
     inkscape:window-y="0"
     inkscape:window-maximized="1"
     inkscape:current-layer="layer1" /><defs
     id="defs1" /><g
     inkscape:label="Layer 1"
     inkscape:groupmode="layer"
     id="layer1"
     transform="translate(-701.21456,-201.7758)"><path
       id="rect4"
       style="fill:#4f80b0;fill-opacity:1;stroke-width:2.43867;stroke-linecap:square;paint-order:markers fill stroke"
       d="m 726.52878,201.7758 c -14.02407,0 -25.31422,11.29014 -25.31422,25.31421 v 57.68279 c 0,14.02407 11.29015,25.31422 25.31422,25.31422 h 57.68227 c 14.02407,0 25.31421,-11.29015 25.31421,-25.31422 v -57.68279 c 0,-14.02407 -11.29014,-25.31421 -25.31421,-25.31421 z m 62.84578,8.13438 0.003,10.3818 0.003,10.3818 -4.15324,4.30257 c -2.28426,2.36635 -5.95401,6.14806 -8.15505,8.40363 -14.84166,15.20927 -26.23616,26.96888 -31.65647,32.67087 l -0.74983,0.78858 5.2e-4,-9.81232 v -9.81232 l 1.63349,-1.82418 c 0.89835,-1.00329 2.83107,-3.04457 4.29483,-4.53615 l 2.66134,-2.71198 h -26.5989 -15.48329 v -12.7 h 25.44599 28.11922 l 2.72955,-2.84169 c 1.50141,-1.56281 5.23497,-5.40258 8.29665,-8.53281 3.06169,-3.13024 6.5783,-6.7627 7.81451,-8.07238 1.23622,-1.30969 3.04603,-3.21468 4.02146,-4.23333 z m -9.86969,39.50922 h 12.97337 12.97337 l -12.82351,12.83229 -12.82299,12.83229 h -2.92126 -2.92127 l -9.27644,9.32657 c -5.10196,5.12958 -10.83161,10.93106 -12.73307,12.89172 l -3.45767,3.56464 -9.54981,0.007 c -5.25251,0.004 -9.5498,-0.0251 -9.5498,-0.0646 -1e-5,-0.10065 11.02681,-11.4208 32.01768,-32.8688 6.76486,-6.9122 13.60278,-13.90715 15.19546,-15.54427 z m -35.75802,2.33836 c 0.0338,-0.0223 0.0802,-0.0103 0.13126,0.0408 0.10225,0.10225 -6.83318,7.23638 -15.41198,15.85382 -5.69435,5.71998 -11.49356,11.57557 -17.29197,17.42426 v -19.98173 c 0.16268,-0.16369 0.32787,-0.33473 0.48783,-0.49558 l 12.30157,-12.36927 h 9.864 c 7.33924,0 9.86451,-0.0793 9.86451,-0.30902 0,-0.0849 0.0211,-0.141 0.0548,-0.1633 z" /></g></svg>
