<?xml version="1.0" encoding="UTF-8" standalone="no"?>
<!-- Created with Inkscape (http://www.inkscape.org/) -->

<svg
   width="25.583559mm"
   height="24.338528mm"
   viewBox="0 0 25.583559 24.338528"
   version="1.1"
   id="svg1"
   xml:space="preserve"
   inkscape:version="1.3.2 (091e20e, 2023-11-25)"
   sodipodi:docname="TrackAzity.svg"
   xmlns:inkscape="http://www.inkscape.org/namespaces/inkscape"
   xmlns:sodipodi="http://sodipodi.sourceforge.net/DTD/sodipodi-0.dtd"
   xmlns="http://www.w3.org/2000/svg"
   xmlns:svg="http://www.w3.org/2000/svg"><sodipodi:namedview
     id="namedview1"
     pagecolor="#505050"
     bordercolor="#eeeeee"
     borderopacity="1"
     inkscape:showpageshadow="0"
     inkscape:pageopacity="0"
     inkscape:pagecheckerboard="0"
     inkscape:deskcolor="#d1d1d1"
     inkscape:document-units="mm"
     inkscape:zoom="2.2697025"
     inkscape:cx="86.575225"
     inkscape:cy="100.2334"
     inkscape:window-width="1920"
     inkscape:window-height="1007"
     inkscape:window-x="0"
     inkscape:window-y="0"
     inkscape:window-maximized="1"
     inkscape:current-layer="layer1"
     showguides="true"><sodipodi:guide
       position="13.76677,36.736269"
       orientation="0,-1"
       id="guide38"
       inkscape:locked="false" /></sodipodi:namedview><defs
     id="defs1" /><g
     inkscape:label="Layer 1"
     inkscape:groupmode="layer"
     id="layer1"
     transform="translate(-900.56341,-229.2549)"><path
       id="path33"
       style="fill:#bfdfff;fill-opacity:1;stroke-width:2;stroke-linecap:square;paint-order:markers fill stroke"
       inkscape:transform-center-x="-0.75812395"
       inkscape:transform-center-y="0.67550746"
       d="M 712.35665 149.18451 L 641.40758 134.10493 L 605.14016 196.92105 L 653.67563 250.82396 L 719.93806 221.32104 L 712.35665 149.18451 z M 644.70864 141.65763 L 707.2949 155.02207 L 710.43981 216.15889 L 696.58181 222.30011 L 695.30293 197.46422 L 678.13539 193.79899 L 654.68983 239.71535 L 644.54804 228.45023 L 670.70134 177.23124 L 670.70548 177.23454 L 670.70978 177.22577 L 694.52409 182.31006 L 693.74024 167.11121 L 637.80953 155.17013 L 644.70864 141.65763 z M 644.65826 171.69777 L 658.98812 174.75716 L 635.70193 220.35848 L 625.56246 209.09386 L 644.65826 171.69777 z "
       transform="matrix(0.21318258,-0.04551397,0.04551397,0.21318258,762.59541,229.87354)" /></g></svg>
